<?xml version="1.0" encoding="UTF-8"?>
<svg xmlns="http://www.w3.org/2000/svg" version="1.1" viewBox="0 0 187.8 42.8">
  <!-- Generator: Adobe Illustrator 29.5.1, SVG Export Plug-In . SVG Version: 2.1.0 Build 141)  -->
  <defs>
    <style>
      .st0 {
        fill: #231f20;
      }

      .st1 {
        fill: #666;
      }

      .st2 {
        opacity: .4;
      }

      .st3 {
        opacity: .1;
      }

      .st4 {
        display: none;
      }
    </style>
  </defs>
  <g id="Guildlines" class="st4">
    <g>
      <g>
        <rect x="521.7" y="770.6" width="46.7" height="46.7"/>
        <rect x="-26.9" y="770.6" width="46.7" height="46.7"/>
      </g>
      <g>
        <rect x="521.7" y="-24.6" width="46.7" height="46.7"/>
        <rect x="-26.9" y="-24.6" width="46.7" height="46.7"/>
      </g>
    </g>
  </g>
  <g id="Layer_2">
    <g>
      <path d="M4.9,15.1v-1.9c0-.5.5-.9,1-.6l11.7,6.3c.1,0,.2,0,.2-.1l.3-13.2c0-.3.2-.5.4-.6l1.7-.9c.5-.2,1,.1,1,.6l-.2,11.6c0,1-.6,2-1.5,2.4l-3.2,1.7c-.8.4-1.8.4-2.6,0l-8.6-4.6c-.2-.1-.4-.4-.4-.6Z"/>
      <path d="M33.5,12.7l1.7,1c.5.3.5.9,0,1.2l-11.5,6.7c-.1,0-.1.2,0,.3l11.1,7.2c.2.1.3.4.3.6v1.9c-.2.5-.8.8-1.2.5l-9.8-6.2c-.9-.5-1.4-1.5-1.3-2.6l.3-3.6c0-.9.6-1.7,1.4-2.2l8.5-4.9c.2-.1.5-.1.7,0Z"/>
      <path d="M21.9,38.2l-1.6,1c-.5.3-1,0-1.1-.5l-.9-13.3c0-.1-.1-.2-.3-.1l-11.4,6.8c-.2.1-.5.1-.7,0l-1.7-1c-.5-.3-.5-.9,0-1.2l9.9-6.1c.9-.5,2-.5,2.9,0l3.1,1.8c.8.5,1.3,1.3,1.4,2.2l.7,9.8c0,.3-.1.5-.3.6Z"/>
    </g>
    <g>
      <path d="M56,30.4l-7.7-17.4h2.7l7,16.1h-1.5l7.1-16.1h2.5l-7.6,17.4h-2.5Z"/>
      <path d="M70.8,28.3h10.2v2.2h-12.6V13h12.3v2.2h-9.8v13.1ZM70.6,20.5h9v2.1h-9v-2.1Z"/>
      <path d="M85,30.4V13h6.8c1.5,0,2.8.2,3.9.7s1.9,1.2,2.5,2.1c.6.9.9,2,.9,3.3s-.3,2.3-.9,3.2c-.6.9-1.4,1.6-2.5,2.1-1.1.5-2.4.7-3.9.7h-5.4l1.1-1.1v6.4h-2.5ZM87.5,24.2l-1.1-1.2h5.4c1.6,0,2.8-.3,3.6-1,.8-.7,1.2-1.7,1.2-2.9s-.4-2.2-1.2-2.9c-.8-.7-2-1-3.6-1h-5.4l1.1-1.2v10.3ZM96.6,30.4l-4.4-6.3h2.7l4.5,6.3h-2.7Z"/>
      <path d="M100.4,30.4l7.9-17.4h2.5l7.9,17.4h-2.6l-7-16h1l-7,16h-2.6ZM103.8,26.1l.7-2h9.8l.7,2h-11.2Z"/>
      <path d="M133,30.4l-7.7-17.4h2.7l7,16.1h-1.5l7.1-16.1h2.5l-7.6,17.4h-2.5Z"/>
      <path d="M145.3,30.4V13h2.5v17.4h-2.5Z"/>
      <path d="M156.5,30.4v-15.3h-6v-2.2h14.4v2.2h-6v15.3h-2.5Z"/>
      <path d="M164.2,30.4l7.9-17.4h2.5l7.9,17.4h-2.6l-7-16h1l-7,16h-2.6ZM167.5,26.1l.7-2h9.8l.7,2h-11.2Z"/>
    </g>
    <g class="st2">
      <path class="st1" d="M-1952.9-129.3v-1.9c0-.5.5-.9,1-.6l11.7,6.3c.1,0,.2,0,.2-.1l.3-13.2c0-.3.2-.5.4-.6l1.7-.9c.5-.2,1,.1,1,.6l-.2,11.6c0,1-.6,2-1.5,2.4l-3.2,1.7c-.8.4-1.8.4-2.6,0l-8.6-4.6c-.2-.1-.4-.4-.4-.6Z"/>
      <path class="st1" d="M-1924.2-131.8l1.7,1c.5.3.5.9,0,1.2l-11.5,6.7c-.1,0-.1.2,0,.3l11.1,7.2c.2.1.3.4.3.6v1.9c-.2.5-.8.8-1.2.5l-9.8-6.2c-.9-.5-1.4-1.5-1.3-2.6l.3-3.6c0-.9.6-1.7,1.4-2.2l8.5-4.9c.2-.1.5-.1.7,0Z"/>
      <path class="st1" d="M-1935.8-106.3l-1.6,1c-.5.3-1,0-1.1-.5l-.9-13.3c0-.1-.1-.2-.3-.1l-11.4,6.8c-.2.1-.5.1-.7,0l-1.7-1c-.5-.3-.5-.9,0-1.2l9.9-6.1c.9-.5,2-.5,2.9,0l3.1,1.8c.8.5,1.3,1.3,1.4,2.2l.7,9.8c0,.3-.1.5-.3.6Z"/>
    </g>
    <g class="st2">
      <path class="st1" d="M-1952.9-164.7v-1.9c0-.5.5-.9,1-.6l11.7,6.3c.1,0,.2,0,.2-.1l.3-13.2c0-.3.2-.5.4-.6l1.7-.9c.5-.2,1,.1,1,.6l-.2,11.6c0,1-.6,2-1.5,2.4l-3.2,1.7c-.8.4-1.8.4-2.6,0l-8.6-4.6c-.2-.1-.4-.4-.4-.6Z"/>
      <path class="st1" d="M-1924.2-167.2l1.7,1c.5.3.5.9,0,1.2l-11.5,6.7c-.1,0-.1.2,0,.3l11.1,7.2c.2.1.3.4.3.6v1.9c-.2.5-.8.8-1.2.5l-9.8-6.2c-.9-.5-1.4-1.5-1.3-2.6l.3-3.6c0-.9.6-1.7,1.4-2.2l8.5-4.9c.2-.1.5-.1.7,0Z"/>
      <path class="st1" d="M-1935.8-141.7l-1.6,1c-.5.3-1,0-1.1-.5l-.9-13.3c0-.1-.1-.2-.3-.1l-11.4,6.8c-.2.1-.5.1-.7,0l-1.7-1c-.5-.3-.5-.9,0-1.2l9.9-6.1c.9-.5,2-.5,2.9,0l3.1,1.8c.8.5,1.3,1.3,1.4,2.2l.7,9.8c0,.3-.1.5-.3.6Z"/>
    </g>
    <g class="st2">
      <path class="st1" d="M-1984.1-94.9v-1.9c0-.5.5-.9,1-.6l11.7,6.3c.1,0,.2,0,.2-.1l.3-13.2c0-.3.2-.5.4-.6l1.7-.9c.5-.2,1,.1,1,.6l-.2,11.6c0,1-.6,2-1.5,2.4l-3.2,1.7c-.8.4-1.8.4-2.6,0l-8.6-4.6c-.2-.1-.4-.4-.4-.6Z"/>
      <path class="st1" d="M-1955.5-97.3l1.7,1c.5.3.5.9,0,1.2l-11.5,6.7c-.1,0-.1.2,0,.3l11.1,7.2c.2.1.3.4.3.6v1.9c-.2.5-.8.8-1.2.5l-9.8-6.2c-.9-.5-1.4-1.5-1.3-2.6l.3-3.6c0-.9.6-1.7,1.4-2.2l8.5-4.9c.2-.1.5-.1.7,0Z"/>
      <path class="st1" d="M-1967.1-71.8l-1.6,1c-.5.3-1,0-1.1-.5l-.9-13.3c0-.1-.1-.2-.3-.1l-11.4,6.8c-.2.1-.5.1-.7,0l-1.7-1c-.5-.3-.5-.9,0-1.2l9.9-6.1c.9-.5,2-.5,2.9,0l3.1,1.8c.8.5,1.3,1.3,1.4,2.2l.7,9.8c0,.3-.1.5-.3.6Z"/>
    </g>
    <g class="st2">
      <path class="st1" d="M-2014.8-94.9v-1.9c0-.5.5-.9,1-.6l11.7,6.3c.1,0,.2,0,.2-.1l.3-13.2c0-.3.2-.5.4-.6l1.7-.9c.5-.2,1,.1,1,.6l-.2,11.6c0,1-.6,2-1.5,2.4l-3.2,1.7c-.8.4-1.8.4-2.6,0l-8.6-4.6c-.2-.1-.4-.4-.4-.6Z"/>
      <path class="st1" d="M-1986.1-97.3l1.7,1c.5.3.5.9,0,1.2l-11.5,6.7c-.1,0-.1.2,0,.3l11.1,7.2c.2.1.3.4.3.6v1.9c-.2.5-.8.8-1.2.5l-9.8-6.2c-.9-.5-1.4-1.5-1.3-2.6l.3-3.6c0-.9.6-1.7,1.4-2.2l8.5-4.9c.2-.1.5-.1.7,0Z"/>
      <path class="st1" d="M-1997.7-71.8l-1.6,1c-.5.3-1,0-1.1-.5l-.9-13.3c0-.1-.1-.2-.3-.1l-11.4,6.8c-.2.1-.5.1-.7,0l-1.7-1c-.5-.3-.5-.9,0-1.2l9.9-6.1c.9-.5,2-.5,2.9,0l3.1,1.8c.8.5,1.3,1.3,1.4,2.2l.7,9.8c0,.3-.1.5-.3.6Z"/>
    </g>
    <g class="st2">
      <path class="st1" d="M-1952.9-58.5v-1.9c0-.5.5-.9,1-.6l11.7,6.3c.1,0,.2,0,.2-.1l.3-13.2c0-.3.2-.5.4-.6l1.7-.9c.5-.2,1,.1,1,.6l-.2,11.6c0,1-.6,2-1.5,2.4l-3.2,1.7c-.8.4-1.8.4-2.6,0l-8.6-4.6c-.2-.1-.4-.4-.4-.6Z"/>
      <path class="st1" d="M-1924.2-61l1.7,1c.5.3.5.9,0,1.2l-11.5,6.7c-.1,0-.1.2,0,.3l11.1,7.2c.2.1.3.4.3.6v1.9c-.2.5-.8.8-1.2.5l-9.8-6.2c-.9-.5-1.4-1.5-1.3-2.6l.3-3.6c0-.9.6-1.7,1.4-2.2l8.5-4.9c.2-.1.5-.1.7,0Z"/>
      <path class="st1" d="M-1935.8-35.5l-1.6,1c-.5.3-1,0-1.1-.5l-.9-13.3c0-.1-.1-.2-.3-.1l-11.4,6.8c-.2.1-.5.1-.7,0l-1.7-1c-.5-.3-.5-.9,0-1.2l9.9-6.1c.9-.5,2-.5,2.9,0l3.1,1.8c.8.5,1.3,1.3,1.4,2.2l.7,9.8c0,.3-.1.5-.3.6Z"/>
    </g>
  </g>
  <g id="Layer_3" class="st4">
    <g class="st3">
      <path class="st0" d="M-1650.4,19.2l-7.1,23.8h-.5c-.2-.6-.4-1.1-.8-1.5-.3-.4-.7-.8-1.1-1.1-.4-.3-.8-.5-1.2-.6-.4-.1-1.2-.3-1.2-.3-5.1-1.8-8.3-6.5-8-12.2.1-3,1.5-5.8,3.9-7.7.4-.3.8-.6,1.2-.9l-1.5-5.1c-.3-1-.6-1.8-.8-2.4-.2-.6-.4-1-.6-1.2-.2-.3-.4-.4-.7-.5-.3,0-.6-.1-1.1-.2v-.5c-.1,0,5.7,0,5.7,0v.5c-.5,0-1.1,0-1.5.2-.4,0-.7.3-.9.6-.2.3-.2.8,0,1.5.1.7.4,1.6.7,2.8l1.2,4.1c2-1.2,4.4-1.8,6.8-1.8s1.4,0,2.1.2c.7.1,1.5.3,2.2.5l.9-2.9c.4-1.2.6-2.1.7-2.8.1-.7,0-1.2,0-1.5-.2-.3-.5-.5-.9-.6-.4,0-1-.1-1.7-.2v-.5h9.4v.5c-.6,0-.9,0-1.2.2-.3,0-.5.3-.7.5-.2.3-.4.7-.6,1.2-.2.6-.5,1.4-.8,2.4l-1.5,5.2M-1666.1,19.9c-1.6,1.3-3.6,3.7-3.7,7.4-.2,5.6,2.8,10.1,7.9,11.7,0,0,.4.1.6.2.3,0,.7.2,1,.4l.7-2.3-5.4-18.1c-.4.2-.7.5-1,.8ZM-1656,17.2c-3-.5-6.1.1-8.7,1.7l5.2,17.5,5.6-18.7c-.7-.2-1.4-.4-2.1-.5Z"/>
      <path class="st0" d="M-1650.4,87.7l-7.1,23.8h-.5c-.2-.6-.4-1.1-.8-1.5-.3-.4-.7-.8-1.1-1.1-.4-.3-.8-.5-1.2-.6-.4-.1-1.2-.3-1.2-.3-5.1-1.8-8.3-6.5-8-12.2.1-3,1.5-5.8,3.9-7.7.4-.3.8-.6,1.2-.9l-1.5-5.1c-.3-1-.6-1.8-.8-2.4-.2-.6-.4-1-.6-1.2-.2-.3-.4-.4-.7-.5-.3,0-.6-.1-1.1-.2v-.5c-.1,0,5.7,0,5.7,0v.5c-.5,0-1.1,0-1.5.2-.4,0-.7.3-.9.6-.2.3-.2.8,0,1.5.1.7.4,1.6.7,2.8l1.2,4.1c2-1.2,4.4-1.8,6.8-1.8s1.4,0,2.1.2c.7.1,1.5.3,2.2.5l.9-2.9c.4-1.2.6-2.1.7-2.8.1-.7,0-1.2,0-1.5-.2-.3-.5-.5-.9-.6-.4,0-1-.1-1.7-.2v-.5h9.4v.5c-.6,0-.9,0-1.2.2-.3,0-.5.3-.7.5-.2.3-.4.7-.6,1.2-.2.6-.5,1.4-.8,2.4l-1.5,5.2M-1666.1,88.3c-1.6,1.3-3.6,3.7-3.7,7.4-.2,5.6,2.8,10.1,7.9,11.7,0,0,.4.1.6.2.3,0,.7.2,1,.4l.7-2.3-5.4-18.1c-.4.2-.7.5-1,.8ZM-1656,85.7c-3-.5-6.1.1-8.7,1.7l5.2,17.5,5.6-18.7c-.7-.2-1.4-.4-2.1-.5Z"/>
      <path class="st0" d="M-1680.9,67.7l-23.8-7.1v-.5c.6-.2,1.1-.4,1.5-.8.4-.3.8-.7,1.1-1.1.3-.4.5-.8.6-1.2.1-.4.3-1.2.3-1.2,1.8-5.1,6.5-8.3,12.2-8,3,.1,5.8,1.5,7.7,3.9.3.4.6.8.9,1.2l5.1-1.5c1-.3,1.8-.6,2.4-.8.6-.2,1-.4,1.2-.6.3-.2.4-.4.5-.7,0-.3.1-.6.2-1.1h.5c0-.1,0,5.7,0,5.7h-.5c0-.5,0-1.1-.2-1.5,0-.4-.3-.7-.6-.9-.3-.2-.8-.2-1.5,0-.7.1-1.6.4-2.8.7l-4.1,1.2c1.2,2,1.8,4.4,1.8,6.8s0,1.4-.2,2.1c-.1.7-.3,1.5-.5,2.2l2.9.9c1.2.4,2.1.6,2.8.7.7.1,1.2,0,1.5,0,.3-.2.5-.5.6-.9,0-.4.1-1,.2-1.7h.5v9.4h-.5c0-.6,0-.9-.2-1.2,0-.3-.3-.5-.5-.7-.3-.2-.7-.4-1.2-.6-.6-.2-1.4-.5-2.4-.8l-5.2-1.5M-1681.5,52c-1.3-1.6-3.7-3.6-7.4-3.7-5.6-.2-10.1,2.8-11.7,7.9,0,0-.1.4-.2.6,0,.3-.2.7-.4,1l2.3.7,18.1-5.4c-.2-.4-.5-.7-.8-1ZM-1678.9,62.2c.5-3-.1-6.1-1.7-8.7l-17.5,5.2,18.7,5.6c.2-.7.4-1.4.5-2.1Z"/>
      <path class="st0" d="M-1532.1,67.7l23.8-7.1v-.5c-.6-.2-1.1-.4-1.5-.8-.4-.3-.8-.7-1.1-1.1-.3-.4-.5-.8-.6-1.2-.1-.4-.3-1.2-.3-1.2-1.8-5.1-6.5-8.3-12.2-8-3,.1-5.8,1.5-7.7,3.9-.3.4-.6.8-.9,1.2l-5.1-1.5c-1-.3-1.8-.6-2.4-.8-.6-.2-1-.4-1.2-.6-.3-.2-.4-.4-.5-.7,0-.3-.1-.6-.2-1.1h-.5c0-.1,0,5.7,0,5.7h.5c0-.5,0-1.1.2-1.5,0-.4.3-.7.6-.9.3-.2.8-.2,1.5,0,.7.1,1.6.4,2.8.7l4.1,1.2c-1.2,2-1.8,4.4-1.8,6.8s0,1.4.2,2.1c.1.7.3,1.5.5,2.2l-2.9.9c-1.2.4-2.1.6-2.8.7-.7.1-1.2,0-1.5,0-.3-.2-.5-.5-.6-.9,0-.4-.1-1-.2-1.7h-.5v9.4h.5c0-.6,0-.9.2-1.2,0-.3.3-.5.5-.7.3-.2.7-.4,1.2-.6.6-.2,1.4-.5,2.4-.8l5.2-1.5M-1531.4,52c1.3-1.6,3.7-3.6,7.4-3.7,5.6-.2,10.1,2.8,11.7,7.9,0,0,.1.4.2.6,0,.3.2.7.4,1l-2.3.7-18.1-5.4c.2-.4.5-.7.8-1ZM-1534.1,62.2c-.5-3,.1-6.1,1.7-8.7l17.5,5.2-18.7,5.6c-.2-.7-.4-1.4-.5-2.1Z"/>
      <path class="st0" d="M-1728.1,67.7l23.8-7.1v-.5c-.6-.2-1.1-.4-1.5-.8-.4-.3-.8-.7-1.1-1.1-.3-.4-.5-.8-.6-1.2-.1-.4-.3-1.2-.3-1.2-1.8-5.1-6.5-8.3-12.2-8-3,.1-5.8,1.5-7.7,3.9-.3.4-.6.8-.9,1.2l-5.1-1.5c-1-.3-1.8-.6-2.4-.8-.6-.2-1-.4-1.2-.6-.3-.2-.4-.4-.5-.7,0-.3-.1-.6-.2-1.1h-.5c0-.1,0,5.7,0,5.7h.5c0-.5,0-1.1.2-1.5,0-.4.3-.7.6-.9.3-.2.8-.2,1.5,0,.7.1,1.6.4,2.8.7l4.1,1.2c-1.2,2-1.8,4.4-1.8,6.8s0,1.4.2,2.1c.1.7.3,1.5.5,2.2l-2.9.9c-1.2.4-2.1.6-2.8.7-.7.1-1.2,0-1.5,0-.3-.2-.5-.5-.6-.9,0-.4-.1-1-.2-1.7h-.5v9.4h.5c0-.6,0-.9.2-1.2,0-.3.3-.5.5-.7.3-.2.7-.4,1.2-.6.6-.2,1.4-.5,2.4-.8l5.2-1.5M-1727.4,52c1.3-1.6,3.7-3.6,7.4-3.7,5.6-.2,10.1,2.8,11.7,7.9,0,0,.1.4.2.6,0,.3.2.7.4,1l-2.3.7-18.1-5.4c.2-.4.5-.7.8-1ZM-1730.1,62.2c-.5-3,.1-6.1,1.7-8.7l17.5,5.2-18.7,5.6c-.2-.7-.4-1.4-.5-2.1Z"/>
      <path class="st0" d="M-1650.4-1.7l-7.1-23.8h-.5c-.2.6-.4,1.1-.8,1.5-.3.4-.7.8-1.1,1.1-.4.3-.8.5-1.2.6-.4.1-1.2.3-1.2.3-5.1,1.8-8.3,6.5-8,12.2.1,3,1.5,5.8,3.9,7.7.4.3.8.6,1.2.9l-1.5,5.1c-.3,1-.6,1.8-.8,2.4-.2.6-.4,1-.6,1.2-.2.3-.4.4-.7.5-.3,0-.6.1-1.1.2v.5c-.1,0,5.7,0,5.7,0v-.5c-.5,0-1.1,0-1.5-.2-.4,0-.7-.3-.9-.6-.2-.3-.2-.8,0-1.5.1-.7.4-1.6.7-2.8l1.2-4.1c2,1.2,4.4,1.8,6.8,1.8s1.4,0,2.1-.2c.7-.1,1.5-.3,2.2-.5l.9,2.9c.4,1.2.6,2.1.7,2.8.1.7,0,1.2,0,1.5-.2.3-.5.5-.9.6-.4,0-1,.1-1.7.2v.5h9.4v-.5c-.6,0-.9,0-1.2-.2-.3,0-.5-.3-.7-.5-.2-.3-.4-.7-.6-1.2-.2-.6-.5-1.4-.8-2.4l-1.5-5.2M-1666.1-2.4c-1.6-1.3-3.6-3.7-3.7-7.4-.2-5.6,2.8-10.1,7.9-11.7,0,0,.4-.1.6-.2.3,0,.7-.2,1-.4l.7,2.3-5.4,18.1c-.4-.2-.7-.5-1-.8ZM-1656,.3c-3,.5-6.1-.1-8.7-1.7l5.2-17.5,5.6,18.7c-.7.2-1.4.4-2.1.5Z"/>
    </g>
  </g>
</svg>